# AST/ASF file generated using VICON BodyLanguage
# -----------------------------------------------
:version 1.10
:name VICON
:units
  mass 1.0
  length 0.45
  angle deg
:documentation
   .ast/.asf automatically generated from VICON data using
   VICON BodyBuilder and BodyLanguage model FoxedUp or BRILLIANT.MOD
:root
   order TX TY TZ RX RY RZ
   axis XYZ
   position 0 0 0  
   orientation 0 0 0 
:bonedata
  begin
     id 1 
     name lhipjoint
     direction 0.78388 -0.462562 0.414208 
     length 3.01181 
     axis 0 0 0  XYZ
  end
  begin
     id 2 
     name lfemur
     direction 0.34202 -0.939693 0  
     length 6.04673  
     axis 0 0 20  XYZ
    dof rx ry rz
    limits (-160.0 20.0)
           (-70.0 70.0)
           (-60.0 70.0)
  end
  begin
     id 3 
     name ltibia
     direction 0.34202 -0.939693 0   
     length 7.211   
     axis 0 0 20   XYZ
    dof rx
    limits (-10.0 170.0)
  end
  begin
     id 4 
     name lfoot
     direction 0.121887 -0.334882 0.934344   
     length 2.13567   
     axis -90 7.62852e-016 20   XYZ
    dof rx rz
    limits (-45.0 90.0)
           (-70.0 20.0)
  end
  begin
     id 5 
     name ltoes
     direction 1.53555e-011 -4.2179e-011 1   
     length 1.05957   
     axis -90 7.62852e-016 20   XYZ
    dof rx
    limits (-90.0 20.0)
  end
  begin
     id 6 
     name rhipjoint
     direction -0.769387 -0.475875 0.426129   
     length 2.92756  
     axis 0 0 0  XYZ 
  end
  begin
     id 7 
     name rfemur
     direction -0.34202 -0.939693 0   
     length 6.35468   
     axis 0 0 -20   XYZ
    dof rx ry rz
    limits (-160.0 20.0)
           (-70.0 70.0)
           (-70.0 60.0)
  end
  begin
     id 8 
     name rtibia
     direction -0.34202 -0.939693 0   
     length 7.37886   
     axis 0 0 -20   XYZ
    dof rx
    limits (-10.0 170.0)
 end
 begin
     id 9 
     name rfoot
     direction -0.101763 -0.279592 0.954711   
     length 2.21478  
     axis -90 -7.62852e-016 -20   XYZ
    dof rx rz
    limits (-45.0 90.0)
           (-20.0 70.0)
  end
  begin
     id 10 
     name rtoes
     direction -1.53494e-011 -4.21851e-011 1   
     length 1.10506   
     axis -90 -7.62852e-016 -20   XYZ
    dof rx
    limits (-90.0 20.0)
  end
  begin
     id 11 
     name lowerback
     direction 0.00747405 0.999267 0.0375481   
     length 2.13259   
     axis 0 0 0   XYZ
    dof rx ry rz
    limits (-20.0 45.0)
           (-30.0 30.0)
           (-30.0 30.0)
  end
  begin
     id 12 
     name upperback
     direction 0.00661626 0.996177 0.0871029   
     length 2.10528   
     axis 0 0 0   XYZ
    dof rx ry rz
    limits (-20.0 45.0)
           (-30.0 30.0)
           (-30.0 30.0)
  end
  begin
     id 13 
     name thorax
     direction 0.00320659 0.997679 0.0680167   
     length 2.11338   
     axis 0 0 0   XYZ
    dof rx ry rz
    limits (-20.0 45.0)
           (-30.0 30.0)
           (-30.0 30.0)
  end
  begin
     id 14 
     name lowerneck
     direction 0.0374841 0.973033 0.227602   
     length 1.42765   
     axis 0 0 0   XYZ
    dof rx ry rz
    limits (-20.0 45.0)
           (-30.0 30.0)
           (-30.0 30.0)
  end
  begin
     id 15 
     name upperneck
     direction 0.00481585 0.989155 -0.146795   
     length 1.47593   
     axis 0 0 0   XYZ
    dof rx ry rz
    limits (-20.0 45.0)
           (-30.0 30.0)
           (-30.0 30.0)
  end
  begin
     id 16
     name head
     direction -0.00292522 0.997206 -0.0746423  
     length 1.48116  
     axis 0 0 0   XYZ
    dof rx ry rz
    limits (-20.0 45.0)
           (-30.0 30.0)
           (-30.0 30.0)
  end
  begin
     id 17 
     name lclavicle
     direction 0.951444 0.305606 0.0368784  
     length 3.01855  
     axis 0 0 0   XYZ
    dof ry rz
    limits (-20.0 10.0)
           (0.0 20.0)
  end
  begin
     id 18 
     name lhumerus
     direction 1 -4.48977e-011 2.61664e-027   
     length 5.52731   
     axis 180 -30 -90   XYZ
    dof rx ry rz
    limits (-60.0 90.0)
           (-90.0 90.0)
           (-90.0 90.0)
  end
  begin
     id 19
     name lradius
     direction 1 -4.48944e-011 8.22157e-027   
     length 3.11059   
     axis 180 -30 -90   XYZ
    dof rx
    limits (-10.0 170.0)
  end
  begin
     id 20
     name lwrist
     direction 1 -4.48976e-011 1.5779e-026   
     length 1.5553   
     axis -1.15221e-014 90 90   XYZ
    dof ry
    limits (-180.0 0.0)
 end
  begin
     id 21 
     name lhand
     direction 1 -4.49025e-011 3.1558e-026   
     length 0.419626   
     axis -2.01367e-014 90 90   XYZ
    dof rx rz
    limits (-90.0 90.0)
           (-45.0 45.0)
  end
  begin
     id 22 
     name lfingers
     direction 1 -4.4904e-011 6.31161e-026   
     length 0.338313   
     axis -4.02734e-014 90 90   XYZ
    dof rx
    limits (0.0 90.0)
  end
  begin
     id 23
     name lthumb
     direction 0.707107 -6.35004e-011 0.707107   
     length 0.485752   
     axis -90 45 2.85299e-015   XYZ
    dof rx rz
    limits (-45.0 45.0)
           (-45.0 45.0)
  end
  begin
     id 24 
     name rclavicle
     direction -0.968876 0.223791 0.105816   
     length 3.04177  
     axis 0 0 0   XYZ 
    dof ry rz
    limits (-10.0 20.0)
           (-20.0 0.0)
  end
  begin
     id 25 
     name rhumerus
     direction -1 -4.48962e-011 -1.01384e-027  
     length 5.25396   
     axis 180 30 90   XYZ
    dof rx ry rz
    limits (-90.0 60.0)
           (-90.0 90.0)
           (-90.0 90.0)
  end
  begin
     id 26 
     name rradius
     direction -1 -4.48955e-011 8.88542e-027   
     length 3.10567   
     axis 180 30 90   XYZ
    dof rx
    limits (-10.0 170.0)
  end
  begin
     id 27 
     name rwrist
     direction -1 -4.48994e-011 1.5779e-026   
     length 1.55283   
     axis -1.15221e-014 -90 -90   XYZ
    dof ry
    limits (-180.0 0.0)
  end
  begin
     id 28
     name rhand
     direction -1 -4.48891e-011 3.1558e-026   
     length 0.498676   
     axis -2.01367e-014 -90 -90   XYZ
    dof rx rz
    limits (-90.0 90.0)
           (-45.0 45.0)
  end
  begin
     id 29
     name rfingers
     direction -1 -4.48972e-011 6.31161e-026   
     length 0.402045   
     axis -4.02734e-014 -90 -90   XYZ
    dof rx
    limits (0.0 90.0)
  end
  begin
     id 30
     name rthumb
     direction -0.707107 -6.34849e-011 0.707107   
     length 0.577259   
     axis -90 -45 -2.85299e-015   XYZ
    dof rx rz
    limits (-45.0 45.0)
           (-45.0 45.0)
  end
:hierarchy
  begin
    root lhipjoint rhipjoint lowerback
    lhipjoint lfemur
    lfemur ltibia
    ltibia lfoot
    lfoot ltoes
    rhipjoint rfemur
    rfemur rtibia
    rtibia rfoot
    rfoot rtoes
    lowerback upperback
    upperback thorax
    thorax lowerneck lclavicle rclavicle
    lowerneck upperneck
    upperneck head
    lclavicle lhumerus
    lhumerus lradius
    lradius lwrist
    lwrist lhand lthumb
    lhand lfingers
    rclavicle rhumerus
    rhumerus rradius
    rradius rwrist
    rwrist rhand rthumb
    rhand rfingers
  end

#!OML:ASF H:\Pregnant\Project 1\Capture day 1\Session 1\femalepreg.ASF
:FULLY-SPECIFIED
:DEGREES
64
root 6.46111 15.5754 20.2232 -151.128 -1.70101 -173.304
lowerback -13.9946 -0.812277 -6.85072
upperback -3.34809 0.317316 0.100635
thorax 4.27688 0.276898 4.04954
lowerneck -12.0247 5.57055 5.8783
upperneck 26.4272 4.3833 2.05466
head 10.5849 2.2763 0.190916
rclavicle 1.19271e-015 -3.49861e-014
rhumerus -37.009 -1.00499 -80.7438
rradius 34.9377
rwrist -6.06653
rhand -14.2869 -18.0544
rfingers 7.12502
rthumb 11.8525 -47.6989
lclavicle 1.19271e-015 -3.49861e-014
lhumerus -31.7692 -18.2915 87.6496
lradius 33.604
lwrist 43.9301
lhand -26.5804 -2.65501
lfingers 7.12502
lthumb -0.0148098 27.3247
rfemur -33.1236 18.0959 24.5038
rtibia 26.7393
rfoot -18.6061 -12.9289
rtoes -8.29897
lfemur -55.8784 -5.92688 -10.2496
ltibia 39.8369
lfoot -11.9354 2.01396
ltoes -14.8924
65
root 6.44017 15.5742 20.1815 -150.829 -1.51305 -173.212
lowerback -13.9618 -0.853247 -7.48766
upperback -3.37247 0.361061 0.0273506
thorax 4.22353 0.29864 4.33964
lowerneck -12.031 5.43363 5.80084
upperneck 26.3125 4.11983 2.3717
head 10.53 2.1823 0.280755
rclavicle 1.55052e-014 -9.54166e-015
rhumerus -37.3092 -0.875377 -80.7323
rradius 35.2429
rwrist -6.14147
rhand -13.9607 -18.0192
rfingers 7.12502
rthumb 12.167 -47.6454
lclavicle 1.55052e-014 -9.54166e-015
lhumerus -31.5329 -18.3843 87.422
lradius 34.005
lwrist 44.1564
lhand -26.5667 -2.69832
lfingers 7.12502
lthumb -0.00154641 27.2814
rfemur -33.4167 18.3591 24.3351
rtibia 26.8897
rfoot -18.5922 -12.9492
rtoes -8.51129
lfemur -56.0724 -5.83421 -10.2376
ltibia 40.022
lfoot -12.1551 2.14717
ltoes -14.7762
66
root 6.41841 15.5726 20.1381 -150.594 -1.3142 -173.127
lowerback -13.9054 -0.889491 -8.12639
upperback -3.37024 0.405702 -0.0377665
thorax 4.18404 0.318295 4.63911
lowerneck -12.0408 5.30588 5.69958
upperneck 26.2052 3.87965 2.67412
head 10.4796 2.09479 0.37252
rclavicle 1.03368e-014 -2.54444e-014
rhumerus -37.5892 -0.6921 -80.7187
rradius 35.563
rwrist -6.23728
rhand -13.6295 -18.0125
rfingers 7.12502
rthumb 12.4864 -47.6194
lclavicle 1.03368e-014 -2.54444e-014
lhumerus -31.2858 -18.442 87.1893
lradius 34.4183
lwrist 44.4144
lhand -26.5442 -2.74561
lfingers 7.12502
lthumb 0.0200971 27.2341
rfemur -33.6631 18.5511 24.1974
rtibia 27.1122
rfoot -18.6106 -12.9096
rtoes -8.75403
lfemur -56.1766 -5.80081 -10.2223
ltibia 40.1973
lfoot -12.3803 2.34132
ltoes -14.6596
67
root 6.39644 15.5708 20.0944 -150.389 -1.12204 -173.056
lowerback -13.8324 -0.926056 -8.75646
upperback -3.35966 0.446091 -0.105538
thorax 4.14401 0.33561 4.92962
lowerneck -12.0603 5.18954 5.59221
upperneck 26.1083 3.66069 2.96254
head 10.4363 2.0148 0.463426
rclavicle -8.74653e-015 5.40694e-014
rhumerus -37.8579 -0.478988 -80.7153
rradius 35.8968
rwrist -6.33557
rhand -13.2902 -18.0161
rfingers 7.12502
rthumb 12.8134 -47.6028
lclavicle -8.74653e-015 5.40694e-014
lhumerus -31.0388 -18.4873 86.9418
lradius 34.8481
lwrist 44.6898
lhand -26.5553 -2.74532
lfingers 7.12502
lthumb 0.00945353 27.2344
rfemur -33.9191 18.6526 24.0874
rtibia 27.4283
rfoot -18.6485 -12.811
rtoes -9.02752
lfemur -56.2405 -5.80627 -10.2112
ltibia 40.3577
lfoot -12.6002 2.55792
ltoes -14.5448
68
root 6.37477 15.5689 20.0515 -150.199 -0.951787 -173.007
lowerback -13.7456 -0.97074 -9.38434
upperback -3.34551 0.473571 -0.176045
thorax 4.10132 0.3469 5.21325
lowerneck -12.0873 5.08156 5.48654
upperneck 26.0197 3.45935 3.22884
head 10.3991 1.94064 0.548756
rclavicle 5.56597e-015 -2.06736e-014
rhumerus -38.1119 -0.239755 -80.7251
rradius 36.247
rwrist -6.43407
rhand -12.9491 -18.0134
rfingers 7.12502
rthumb 13.1423 -47.5792
lclavicle 5.56597e-015 -2.06736e-014
lhumerus -30.7793 -18.5225 86.6757
lradius 35.2799
lwrist 44.9717
lhand -26.568 -2.73507
lfingers 7.12502
lthumb -0.0028479 27.2447
rfemur -34.2103 18.6386 24.0062
rtibia 27.8519
rfoot -18.6939 -12.6508
rtoes -9.33495
lfemur -56.2892 -5.84463 -10.2108
ltibia 40.5011
lfoot -12.8089 2.77355
ltoes -14.4333
69
root 6.35357 15.5671 20.0097 -150.013 -0.804785 -172.974
lowerback -13.6494 -1.02095 -9.99389
upperback -3.33222 0.490572 -0.256822
thorax 4.05404 0.354142 5.47323
lowerneck -12.1174 4.98351 5.38395
upperneck 25.9346 3.27416 3.48583
head 10.3651 1.87314 0.632463
rclavicle -3.97569e-015 5.40694e-014
rhumerus -38.3514 0.0108747 -80.7559
rradius 36.6135
rwrist -6.51948
rhand -12.5933 -18.0256
rfingers 7.12502
rthumb 13.4852 -47.569
lclavicle -3.97569e-015 5.40694e-014
lhumerus -30.514 -18.567 86.3828
lradius 35.7188
lwrist 45.2611
lhand -26.606 -2.69703
lfingers 7.12502
lthumb -0.0395079 27.2827
rfemur -34.5609 18.517 23.9558
rtibia 28.4048
rfoot -18.7379 -12.4382
rtoes -9.663
lfemur -56.333 -5.89992 -10.2208
ltibia 40.6235
lfoot -13.0029 2.97291
ltoes -14.3303
70
root 6.33275 15.5656 19.9693 -149.823 -0.681658 -172.955
lowerback -13.5502 -1.07594 -10.5707
upperback -3.32457 0.497643 -0.353424
thorax 4.00107 0.358418 5.69555
lowerneck -12.1511 4.8944 5.2857
upperneck 25.8544 3.10073 3.74053
head 10.3348 1.81102 0.716248
rclavicle 1.98785e-014 5.24792e-014
rhumerus -38.5795 0.2594 -80.8118
rradius 36.9917
rwrist -6.57672
rhand -12.2134 -17.9982
rfingers 7.12502
rthumb 13.8513 -47.5169
lclavicle 1.98785e-014 5.24792e-014
lhumerus -30.247 -18.6302 86.057
lradius 36.1625
lwrist 45.5394
lhand -26.6433 -2.65828
lfingers 7.12502
lthumb -0.0755392 27.3215
rfemur -34.9849 18.2668 23.9469
rtibia 29.0946
rfoot -18.7747 -12.1547
rtoes -9.97869
lfemur -56.3838 -5.9608 -10.2405
ltibia 40.7232
lfoot -13.1798 3.14451
ltoes -14.2349
71
root 6.3124 15.5645 19.9303 -149.63 -0.592244 -172.953
lowerback -13.4391 -1.13731 -11.1102
upperback -3.32232 0.491058 -0.468841
thorax 3.93885 0.358202 5.87372
lowerneck -12.1851 4.81632 5.20385
upperneck 25.7756 2.94069 3.98895
head 10.3063 1.75573 0.796774
rclavicle -6.36111e-015 -3.49861e-014
rhumerus -38.7911 0.487877 -80.8947
rradius 37.378
rwrist -6.58964
rhand -11.7933 -17.9504
rfingers 7.12502
rthumb 14.2562 -47.4411
lclavicle -6.36111e-015 -3.49861e-014
lhumerus -29.9806 -18.7141 85.6937
lradius 36.6093
lwrist 45.8071
lhand -26.6695 -2.65051
lfingers 7.12502
lthumb -0.100853 27.3292
rfemur -35.4791 17.8923 23.9806
rtibia 29.9192
rfoot -18.7968 -11.8103
rtoes -10.2335
lfemur -56.4427 -6.02365 -10.2749
ltibia 40.7998
lfoot -13.3401 3.26808
ltoes -14.1211
72
root 6.29243 15.5642 19.8924 -149.432 -0.518745 -172.955
lowerback -13.3349 -1.19956 -11.6039
upperback -3.32375 0.479536 -0.602334
thorax 3.8784 0.357235 6.00535
lowerneck -12.2044 4.74543 5.1287
upperneck 25.6919 2.78902 4.24031
head 10.2741 1.70448 0.877786
rclavicle 0 1.59028e-014
rhumerus -38.9913 0.706116 -81.0041
rradius 37.7727
rwrist -6.55684
rhand -11.3426 -17.8666
rfingers 7.12502
rthumb 14.6905 -47.3262
lclavicle 0 1.59028e-014
lhumerus -29.7091 -18.809 85.2905
lradius 37.0488
lwrist 46.0519
lhand -26.6941 -2.65387
lfingers 7.12502
lthumb -0.124656 27.3258
rfemur -36.0465 17.4237 24.0551
rtibia 30.8685
rfoot -18.786 -11.4103
rtoes -10.4171
lfemur -56.5071 -6.06895 -10.3199
ltibia 40.8552
lfoot -13.4867 3.34512
ltoes -13.9971
73
root 6.27294 15.5646 19.8554 -149.246 -0.465922 -172.96
lowerback -13.2269 -1.26668 -12.059
upperback -3.31723 0.455781 -0.742881
thorax 3.82743 0.350006 6.10519
lowerneck -12.2222 4.68743 5.05146
upperneck 25.6063 2.65726 4.49014
head 10.2415 1.66189 0.961004
rclavicle 1.59028e-015 -6.99722e-014
rhumerus -39.1628 0.931874 -81.1342
rradius 38.1758
rwrist -6.48007
rhand -10.8702 -17.784
rfingers 7.12502
rthumb 15.1455 -47.2098
lclavicle 1.59028e-015 -6.99722e-014
lhumerus -29.4208 -18.8821 84.8492
lradius 37.4703
lwrist 46.2723
lhand -26.7128 -2.6914
lfingers 7.12502
lthumb -0.142678 27.2883
rfemur -36.6617 16.8784 24.1742
rtibia 31.9299
rfoot -18.7303 -10.9703
rtoes -10.5322
lfemur -56.5593 -6.09524 -10.379
ltibia 40.8924
lfoot -13.6246 3.36806
ltoes -13.8644
